<?xml version="1.0" standalone="no"?>
<!DOCTYPE svg PUBLIC "-//W3C//DTD SVG 20010904//EN"
 "http://www.w3.org/TR/2001/REC-SVG-20010904/DTD/svg10.dtd">
<svg version="1.0" xmlns="http://www.w3.org/2000/svg"
 width="300.000000pt" height="300.000000pt" viewBox="0 0 300.000000 300.000000"
 preserveAspectRatio="xMidYMid meet">
<metadata>
Created by potrace 1.10, written by Peter Selinger 2001-2011
</metadata>
<g transform="translate(0.000000,300.000000) scale(0.100000,-0.100000)"
fill="#000000" stroke="none">
<path d="M1174 2310 c-98 -168 -391 -669 -651 -1114 -260 -445 -473 -810 -473
-810 0 -1 93 0 206 1 l205 3 270 450 270 450 214 0 215 0 0 -435 0 -435 195 0
195 0 0 434 0 434 268 5 c250 4 273 6 359 30 315 89 482 288 500 592 14 258
-79 462 -269 585 -31 20 -101 52 -155 71 l-98 33 -333 6 -333 5 -143 -245
c-79 -135 -152 -261 -162 -280 -17 -31 -19 -63 -22 -286 l-4 -252 -146 -4
c-81 -2 -148 -4 -148 -4 -1 1 66 115 147 255 l149 254 0 281 0 281 -39 0 -39
0 -178 -305z m1304 232 c218 -66 348 -189 406 -382 9 -30 19 -102 22 -160 8
-132 -11 -224 -66 -337 -71 -144 -219 -252 -415 -304 -69 -19 -117 -22 -340
-26 -143 -3 -264 -9 -269 -14 -6 -5 -13 -9 -17 -9 -4 0 -37 52 -74 115 -83
144 -107 165 -185 165 -44 0 -59 4 -64 16 -3 9 -6 112 -6 231 0 193 2 218 19
241 10 15 76 126 146 247 70 121 133 226 138 233 9 11 72 13 321 10 285 -4
317 -6 384 -26z m-1086 -229 l3 -248 -26 -40 c-76 -118 -259 -445 -259 -462 0
-44 34 -58 158 -63 l117 -5 3 -74 c2 -53 -1 -77 -10 -82 -7 -5 -97 -9 -199 -9
l-185 0 -25 -27 c-14 -16 -139 -218 -278 -451 l-252 -422 -155 0 c-131 0 -155
2 -151 14 7 17 89 159 312 540 86 148 165 283 175 300 92 161 707 1210 726
1239 13 20 28 37 33 37 5 0 11 -108 13 -247z m266 -850 c28 -49 63 -107 77
-130 l26 -43 -165 0 -166 0 0 130 0 130 88 0 88 0 52 -87z m122 -586 c0 -292
-3 -396 -12 -405 -17 -17 -269 -17 -286 0 -9 9 -12 107 -12 379 0 202 3 374 6
383 5 13 27 16 133 16 69 0 133 5 141 10 8 5 18 10 23 10 4 0 7 -177 7 -393z"/>
<path d="M1843 2383 c-13 -2 -32 -16 -43 -30 -19 -25 -20 -40 -20 -399 l0
-373 24 -28 24 -28 249 0 c228 0 254 2 318 22 123 39 212 119 257 231 32 83
32 262 -1 345 -57 145 -176 230 -359 257 -65 9 -405 12 -449 3z m536 -62 c78
-24 145 -69 188 -125 54 -70 67 -117 67 -246 1 -107 -1 -120 -28 -178 -36 -77
-104 -142 -184 -174 -53 -21 -76 -23 -330 -28 l-272 -5 0 390 0 390 247 -2
c216 -2 256 -4 312 -22z"/>
</g>
</svg>
