<svg version="1.1" id="Layer_1" xmlns="http://www.w3.org/2000/svg" xmlns:xlink="http://www.w3.org/1999/xlink" x="0px" y="0px"
	 width="100%" viewBox="0 0 640 640" enable-background="new 0 0 640 640" xml:space="preserve">
<path fill="#000000" opacity="1.000000" stroke="none" 
	d="
M345.000000,641.000000 
	C230.000015,641.000000 115.500038,641.000000 1.000046,641.000000 
	C1.000031,427.666718 1.000031,214.333450 1.000015,1.000132 
	C214.333237,1.000088 427.666473,1.000088 640.999756,1.000044 
	C640.999878,214.333191 640.999878,427.666382 640.999939,640.999756 
	C542.500000,641.000000 444.000000,641.000000 345.000000,641.000000 
M114.063423,535.654419 
	C114.492882,535.149048 115.004967,534.692932 115.339951,534.131226 
	C130.917236,508.010376 146.443344,481.858917 162.052292,455.757019 
	C179.249481,426.999176 196.591354,398.327362 213.644730,369.484772 
	C215.237427,366.791016 216.630890,365.918854 219.617188,365.931580 
	C246.780731,366.047424 273.944946,365.999573 301.108978,365.999542 
	C302.687683,365.999542 304.266418,365.999542 306.174011,365.999542 
	C306.174011,428.373627 306.174011,489.974945 306.174011,551.695190 
	C334.232300,551.695190 361.953033,551.695190 390.186096,551.695190 
	C390.186096,489.672180 390.186096,427.951965 390.186096,365.999542 
	C392.513794,365.999542 394.332245,365.999542 396.150665,365.999573 
	C425.981110,365.999725 455.811676,366.048859 485.641815,365.954041 
	C490.904175,365.937317 496.246307,365.790833 501.411652,364.896149 
	C522.949280,361.165680 543.706787,355.189545 563.100525,344.598541 
	C579.698853,335.534210 593.831177,323.683502 605.338013,308.956604 
	C621.919800,287.734558 628.939392,262.723480 630.812073,236.314301 
	C631.605103,225.131134 630.659424,213.780746 629.930603,202.543549 
	C628.736816,184.136475 623.832214,166.722809 614.872864,150.491348 
	C605.469421,133.455536 592.408447,119.831444 576.482361,108.853745 
	C564.301331,100.457542 550.698364,95.236786 536.664124,90.818024 
	C521.259216,85.967697 505.607269,83.029663 489.453033,83.012146 
	C453.289917,82.972931 417.126068,83.103325 380.964417,82.872223 
	C376.310059,82.842484 374.016052,84.450111 371.829376,88.318001 
	C364.298492,101.638809 356.320496,114.705925 348.608765,127.925659 
	C339.919373,142.821350 331.365662,157.796173 322.690369,172.700165 
	C318.084076,180.613678 313.345276,188.450119 308.666321,196.321350 
	C308.380524,196.230042 308.094757,196.138718 307.808960,196.047409 
	C307.808960,158.476410 307.808960,120.905411 307.808960,83.002594 
	C301.769409,83.002594 296.127655,82.888321 290.497650,83.094856 
	C289.310455,83.138412 287.678131,84.067566 287.076050,85.079567 
	C278.753418,99.068329 270.542511,113.124016 262.369354,127.201134 
	C251.422287,146.056000 240.595886,164.981140 229.599655,183.807175 
	C217.782166,204.039276 205.763641,224.153961 193.951218,244.388992 
	C181.480804,265.751190 169.235611,287.245026 156.735687,308.589752 
	C142.587784,332.748566 128.156677,356.741760 114.048027,380.923218 
	C96.906998,410.302002 80.074242,439.860657 62.922581,469.233154 
	C46.424461,497.486450 29.675850,525.593445 13.091681,553.796692 
	C12.068031,555.537537 11.520267,557.558105 10.528429,559.995728 
	C40.124813,559.995728 68.940262,560.020935 97.755104,559.900635 
	C98.868431,559.895996 100.372505,558.741577 101.022156,557.702515 
	C105.425064,550.660767 109.646980,543.505859 114.063423,535.654419 
z"/>
<path fill="#3561FF" opacity="1.000000" stroke="none" 
	d="
M113.995407,536.020996 
	C109.646980,543.505859 105.425064,550.660767 101.022156,557.702515 
	C100.372505,558.741577 98.868431,559.895996 97.755104,559.900635 
	C68.940262,560.020935 40.124813,559.995728 10.528429,559.995728 
	C11.520267,557.558105 12.068031,555.537537 13.091681,553.796692 
	C29.675850,525.593445 46.424461,497.486450 62.922581,469.233154 
	C80.074242,439.860657 96.906998,410.302002 114.048027,380.923218 
	C128.156677,356.741760 142.587784,332.748566 156.735687,308.589752 
	C169.235611,287.245026 181.480804,265.751190 193.951218,244.388992 
	C205.763641,224.153961 217.782166,204.039276 229.599655,183.807175 
	C240.595886,164.981140 251.422287,146.056000 262.369354,127.201134 
	C270.542511,113.124016 278.753418,99.068329 287.076050,85.079567 
	C287.678131,84.067566 289.310455,83.138412 290.497650,83.094856 
	C296.127655,82.888321 301.769409,83.002594 307.808960,83.002594 
	C307.808960,120.905411 307.808960,158.476410 307.808960,196.047409 
	C308.094757,196.138718 308.380524,196.230042 308.666321,196.321350 
	C313.345276,188.450119 318.084076,180.613678 322.690369,172.700165 
	C331.365662,157.796173 339.919373,142.821350 348.608765,127.925659 
	C356.320496,114.705925 364.298492,101.638809 371.829376,88.318001 
	C374.016052,84.450111 376.310059,82.842484 380.964417,82.872223 
	C417.126068,83.103325 453.289917,82.972931 489.453033,83.012146 
	C505.607269,83.029663 521.259216,85.967697 536.664124,90.818024 
	C550.698364,95.236786 564.301331,100.457542 576.482361,108.853745 
	C592.408447,119.831444 605.469421,133.455536 614.872864,150.491348 
	C623.832214,166.722809 628.736816,184.136475 629.930603,202.543549 
	C630.659424,213.780746 631.605103,225.131134 630.812073,236.314301 
	C628.939392,262.723480 621.919800,287.734558 605.338013,308.956604 
	C593.831177,323.683502 579.698853,335.534210 563.100525,344.598541 
	C543.706787,355.189545 522.949280,361.165680 501.411652,364.896149 
	C496.246307,365.790833 490.904175,365.937317 485.641815,365.954041 
	C455.811676,366.048859 425.981110,365.999725 396.150665,365.999573 
	C394.332245,365.999542 392.513794,365.999542 390.186096,365.999542 
	C390.186096,427.951965 390.186096,489.672180 390.186096,551.695190 
	C361.953033,551.695190 334.232300,551.695190 306.174011,551.695190 
	C306.174011,489.974945 306.174011,428.373627 306.174011,365.999542 
	C304.266418,365.999542 302.687683,365.999542 301.108978,365.999542 
	C273.944946,365.999573 246.780731,366.047424 219.617188,365.931580 
	C216.630890,365.918854 215.237427,366.791016 213.644730,369.484772 
	C196.591354,398.327362 179.249481,426.999176 162.052292,455.757019 
	C146.443344,481.858917 130.917236,508.010376 115.339951,534.131226 
	C115.004967,534.692932 114.492882,535.149048 113.995407,536.020996 
M559.002502,195.566864 
	C554.347778,179.552521 545.105591,166.791901 531.148499,157.757370 
	C515.319031,147.510788 497.537506,142.593521 478.912842,142.165833 
	C451.108643,141.527328 423.278931,142.000381 395.460052,142.000519 
	C393.707825,142.000534 391.955597,142.000519 390.383057,142.000519 
	C390.383057,197.093506 390.383057,251.463364 390.383057,306.000641 
	C418.244568,306.000641 445.728363,305.683838 473.200195,306.121002 
	C489.342285,306.377838 504.888916,304.399780 519.731750,297.958984 
	C531.475281,292.863068 541.631287,285.873260 549.083191,275.026337 
	C555.779236,265.279694 560.106445,254.653687 561.773193,243.184586 
	C564.052063,227.502472 564.294006,211.736481 559.002502,195.566864 
M246.418442,308.048584 
	C245.939743,308.807373 245.461044,309.566162 244.792114,310.626465 
	C265.491638,310.626465 285.653015,310.626465 305.754578,310.626465 
	C305.754578,276.061615 305.754578,241.870712 305.754578,206.437027 
	C302.117920,212.527039 299.046143,217.582672 296.059967,222.688385 
	C287.284729,237.692322 278.516754,252.700607 269.796997,267.736847 
	C262.134766,280.949493 254.541504,294.202148 246.418442,308.048584 
M371.658844,364.997131 
	C375.648468,363.927856 372.404633,361.860870 371.876190,360.945587 
	C364.556335,348.267639 356.390045,336.032349 349.789612,323.000580 
	C345.084900,313.711700 338.916626,310.513367 328.888580,311.829193 
	C322.088196,312.721497 315.076019,311.999542 308.241882,311.999542 
	C308.241882,330.018768 308.241882,347.284729 308.241882,364.999420 
	C329.258911,364.999420 350.037079,364.999420 371.658844,364.997131 
z"/>
<path fill="#000000" opacity="1.000000" stroke="none" 
	d="
M559.044434,195.977768 
	C564.294006,211.736481 564.052063,227.502472 561.773193,243.184586 
	C560.106445,254.653687 555.779236,265.279694 549.083191,275.026337 
	C541.631287,285.873260 531.475281,292.863068 519.731750,297.958984 
	C504.888916,304.399780 489.342285,306.377838 473.200195,306.121002 
	C445.728363,305.683838 418.244568,306.000641 390.383057,306.000641 
	C390.383057,251.463364 390.383057,197.093506 390.383057,142.000519 
	C391.955597,142.000519 393.707825,142.000534 395.460052,142.000519 
	C423.278931,142.000381 451.108643,141.527328 478.912842,142.165833 
	C497.537506,142.593521 515.319031,147.510788 531.148499,157.757370 
	C545.105591,166.791901 554.347778,179.552521 559.044434,195.977768 
z"/>
<path fill="#000000" opacity="1.000000" stroke="none" 
	d="
M246.668106,307.742859 
	C254.541504,294.202148 262.134766,280.949493 269.796997,267.736847 
	C278.516754,252.700607 287.284729,237.692322 296.059967,222.688385 
	C299.046143,217.582672 302.117920,212.527039 305.754578,206.437027 
	C305.754578,241.870712 305.754578,276.061615 305.754578,310.626465 
	C285.653015,310.626465 265.491638,310.626465 244.792114,310.626465 
	C245.461044,309.566162 245.939743,308.807373 246.668106,307.742859 
z"/>
<path fill="#000000" opacity="1.000000" stroke="none" 
	d="
M371.237061,364.998291 
	C350.037079,364.999420 329.258911,364.999420 308.241882,364.999420 
	C308.241882,347.284729 308.241882,330.018768 308.241882,311.999542 
	C315.076019,311.999542 322.088196,312.721497 328.888580,311.829193 
	C338.916626,310.513367 345.084900,313.711700 349.789612,323.000580 
	C356.390045,336.032349 364.556335,348.267639 371.876190,360.945587 
	C372.404633,361.860870 375.648468,363.927856 371.237061,364.998291 
z"/>
</svg>